<svg width="18" height="18" viewBox="0 0 18 18" fill="none" xmlns="http://www.w3.org/2000/svg">
<path fill-rule="evenodd" clip-rule="evenodd" d="M6.79266 12.9305C6.79266 13.2292 7.0262 13.4724 7.31375 13.4724C7.60129 13.4724 7.83484 13.2292 7.83484 12.9305V10.2416C7.83484 10.1038 7.78489 9.9717 7.69377 9.87049L3.39883 5.09495C3.33065 5.01904 3.29218 4.91854 3.29218 4.81453V3.74627C3.29218 3.52067 3.4697 3.33583 3.68705 3.33583H5.77208C6.05962 3.33583 6.29317 3.09266 6.29317 2.79327C6.29317 2.49387 6.05962 2.25 5.77208 2.25H3.68705C2.89461 2.25 2.25 2.92118 2.25 3.74627V4.81453C2.25 5.19615 2.3877 5.5588 2.63812 5.83781L6.79266 10.4559V12.9305ZM6.90025 15.4399C6.98868 15.6353 7.177 15.75 7.37342 15.75C7.44699 15.75 7.52191 15.734 7.59279 15.6999L10.5094 14.3024C10.6923 14.2148 10.8104 14.0257 10.8104 13.8164V10.3809L15.3187 5.82048C15.5927 5.54444 15.75 5.15925 15.75 4.76432V3.73042C15.75 2.91414 15.1047 2.25013 14.3123 2.25013H8.30557C8.01803 2.25013 7.78448 2.4914 7.78448 2.7869C7.78448 3.08379 8.01803 3.32436 8.30557 3.32436H14.3123C14.5303 3.32436 14.7071 3.50723 14.7071 3.73042V4.76432C14.7071 4.87209 14.6646 4.97778 14.589 5.05357L9.92419 9.77323C9.82429 9.87405 9.76759 10.0124 9.76759 10.1563V13.4736L7.15337 14.7258C6.89215 14.851 6.77943 15.1701 6.90025 15.4399Z" fill="#212121"/>
</svg>
