<svg width="41" height="40" viewBox="0 0 41 40" fill="none" xmlns="http://www.w3.org/2000/svg">
<rect x="0.773193" y="0.5" width="40.2062" height="39" rx="19.5" fill="url(#paint0_linear_91_6844)"/>
<g clip-path="url(#clip0_91_6844)" filter="url(#filter0_d_91_6844)">
<path d="M30.1337 22.6117L22.7904 19.2792C22.0321 19.0225 21.2087 19.2133 20.6446 19.7775C20.0671 20.3542 19.8921 21.1858 20.1912 22.0375L23.4779 29.2667C23.6762 29.7025 24.1137 29.99 24.6004 29.9992H24.6162C25.0921 29.9992 25.5204 29.735 25.7346 29.3083L27.2146 26.3475L30.1762 24.8675C30.6046 24.6525 30.8754 24.205 30.8671 23.7267C30.8587 23.2475 30.5712 22.8092 30.1346 22.6117H30.1337ZM29.8029 24.1217L26.5937 25.7258L24.9896 28.935C24.9179 29.0775 24.7854 29.1667 24.6262 29.1667C24.4671 29.1642 24.3029 29.0675 24.2371 28.9217L20.9646 21.7275C20.7854 21.2133 20.8829 20.7175 21.2346 20.3667C21.4679 20.1325 21.7762 20.0058 22.1079 20.0058C22.2554 20.0058 22.4079 20.0308 22.5596 20.0833L29.7887 23.37C29.9337 23.4358 30.0296 23.5817 30.0321 23.7408C30.0346 23.9 29.9454 24.05 29.8029 24.1217ZM20.8762 10C20.8721 10 20.8679 10 20.8629 10C20.8629 10 20.8629 10 20.8621 10C15.3546 10.0075 10.8762 14.4908 10.8762 20C10.8762 25.5092 15.3621 30 20.8762 30C21.0212 30 21.1662 29.9967 21.3104 29.9908C21.5404 29.9808 21.7187 29.7867 21.7096 29.5567C21.6996 29.3275 21.5012 29.1433 21.2762 29.1575C21.1996 29.1608 21.1221 29.1633 21.0454 29.1642C20.5721 28.6892 18.7646 26.7725 17.6379 24.1658H18.7937C19.0237 24.1658 19.2104 23.9792 19.2104 23.7492C19.2104 23.5192 19.0237 23.3325 18.7937 23.3325H17.3121C16.9479 22.295 16.7104 21.1708 16.7104 19.9992C16.7104 18.8275 16.9479 17.7033 17.3129 16.6658H24.4437C24.5954 17.0975 24.7254 17.545 24.8246 18.0033C24.8671 18.1983 25.0396 18.3325 25.2312 18.3325C25.2604 18.3325 25.2896 18.33 25.3196 18.3233C25.5446 18.275 25.6871 18.0533 25.6387 17.8283C25.5529 17.4308 25.4462 17.0433 25.3246 16.6658H29.4162C29.8212 17.6992 30.0437 18.8242 30.0437 19.9992C30.0437 20.1325 30.0412 20.265 30.0354 20.3975C30.0254 20.6275 30.2037 20.8217 30.4337 20.8317C30.6687 20.8533 30.8587 20.6642 30.8679 20.4333C30.8746 20.2892 30.8771 20.1442 30.8771 19.9983C30.8762 14.4858 26.3904 10 20.8762 10ZM11.7096 20C11.7096 18.825 11.9321 17.7 12.3371 16.6667H16.4246C16.0896 17.705 15.8762 18.8258 15.8762 20C15.8762 21.1742 16.0896 22.295 16.4246 23.3333H12.3371C11.9321 22.3 11.7096 21.175 11.7096 20ZM16.7254 24.1667C17.6137 26.3908 18.9946 28.1542 19.8446 29.1083C16.7304 28.7583 14.0829 26.8417 12.7121 24.1667H16.7254ZM16.7254 15.8333H12.7121C14.0829 13.1583 16.7304 11.2417 19.8454 10.8917C18.9954 11.8458 17.6137 13.6092 16.7254 15.8333ZM17.6387 15.8333C18.6587 13.4758 20.2362 11.68 20.8762 11.0083C21.5179 11.6808 23.0971 13.4775 24.1162 15.8333H17.6387ZM25.0221 15.8333C24.1321 13.6067 22.7537 11.845 21.9054 10.8917C25.0204 11.2417 27.6679 13.1583 29.0396 15.8333H25.0221Z" fill="#7C3AED"/>
</g>
<defs>
<filter id="filter0_d_91_6844" x="6.87622" y="10" width="28" height="28" filterUnits="userSpaceOnUse" color-interpolation-filters="sRGB">
<feFlood flood-opacity="0" result="BackgroundImageFix"/>
<feColorMatrix in="SourceAlpha" type="matrix" values="0 0 0 0 0 0 0 0 0 0 0 0 0 0 0 0 0 0 127 0" result="hardAlpha"/>
<feOffset dy="4"/>
<feGaussianBlur stdDeviation="2"/>
<feComposite in2="hardAlpha" operator="out"/>
<feColorMatrix type="matrix" values="0 0 0 0 0 0 0 0 0 0 0 0 0 0 0 0 0 0 0.25 0"/>
<feBlend mode="normal" in2="BackgroundImageFix" result="effect1_dropShadow_91_6844"/>
<feBlend mode="normal" in="SourceGraphic" in2="effect1_dropShadow_91_6844" result="shape"/>
</filter>
<linearGradient id="paint0_linear_91_6844" x1="20.8763" y1="0.5" x2="20.8763" y2="39.5" gradientUnits="userSpaceOnUse">
<stop stop-color="#FBFBFF"/>
<stop offset="1" stop-color="#CACAFF"/>
</linearGradient>
<clipPath id="clip0_91_6844">
<rect width="20" height="20" fill="white" transform="translate(10.8762 10)"/>
</clipPath>
</defs>
</svg>
