<svg width="32" height="31" viewBox="0 0 32 31" fill="none" xmlns="http://www.w3.org/2000/svg">
<rect x="0.5" y="0.5" width="30.2" height="29.1321" rx="14.5661" stroke="#E2E8F0"/>
<g clip-path="url(#clip0_1360_4426)">
<g filter="url(#filter0_d_1360_4426)">
<path d="M15.6 14.7123C14.8792 14.7123 14.2862 14.491 13.8209 14.0485C13.3557 13.6059 13.1231 13.0418 13.1231 12.3561C13.1231 11.6659 13.3557 11.1007 13.8209 10.6604C14.2862 10.2201 14.8792 10 15.6 10C16.3208 10 16.9138 10.2201 17.3791 10.6604C17.8443 11.1007 18.0769 11.6659 18.0769 12.3561C18.0769 13.0418 17.8443 13.6059 17.3791 14.0485C16.9138 14.491 16.3208 14.7123 15.6 14.7123ZM10.8615 20.1321C10.6222 20.1321 10.4188 20.0524 10.2513 19.8931C10.0838 19.7337 10 19.5402 10 19.3126V18.784C10 18.4025 10.1063 18.0701 10.3188 17.7869C10.5313 17.5037 10.8075 17.2861 11.1473 17.134C11.9332 16.8017 12.6909 16.5512 13.4203 16.3828C14.1497 16.2143 14.8763 16.1301 15.6 16.1301C16.3237 16.1301 17.0483 16.2162 17.7739 16.3883C18.4996 16.5603 19.2553 16.8089 20.0412 17.134C20.3887 17.2861 20.6687 17.5037 20.8812 17.7869C21.0937 18.0701 21.2 18.4025 21.2 18.784V19.3126C21.2 19.5402 21.1162 19.7337 20.9487 19.8931C20.7812 20.0524 20.5778 20.1321 20.3385 20.1321H10.8615Z" fill="#603CFF"/>
</g>
</g>
<defs>
<filter id="filter0_d_1360_4426" x="-26.855" y="2.395" width="84.91" height="83.8418" filterUnits="userSpaceOnUse" color-interpolation-filters="sRGB">
<feFlood flood-opacity="0" result="BackgroundImageFix"/>
<feColorMatrix in="SourceAlpha" type="matrix" values="0 0 0 0 0 0 0 0 0 0 0 0 0 0 0 0 0 0 127 0" result="hardAlpha"/>
<feOffset dy="29.25"/>
<feGaussianBlur stdDeviation="18.4275"/>
<feComposite in2="hardAlpha" operator="out"/>
<feColorMatrix type="matrix" values="0 0 0 0 0.262745 0 0 0 0 0.0941176 0 0 0 0 1 0 0 0 0.28 0"/>
<feBlend mode="normal" in2="BackgroundImageFix" result="effect1_dropShadow_1360_4426"/>
<feBlend mode="normal" in="SourceGraphic" in2="effect1_dropShadow_1360_4426" result="shape"/>
</filter>
<clipPath id="clip0_1360_4426">
<rect width="11.2" height="10.1321" fill="white" transform="translate(10 10)"/>
</clipPath>
</defs>
</svg>
