<svg width="24" height="24" viewBox="0 0 24 24" fill="none" xmlns="http://www.w3.org/2000/svg">
<path fill-rule="evenodd" clip-rule="evenodd" d="M7.33049 2H16.6605C20.0605 2 22.0005 3.92 22.0005 7.33V16.67C22.0005 20.06 20.0705 22 16.6705 22H7.33049C3.92049 22 2.00049 20.06 2.00049 16.67V7.33C2.00049 3.92 3.92049 2 7.33049 2ZM12.8205 12.83H15.6605C16.1205 12.82 16.4905 12.45 16.4905 11.99C16.4905 11.53 16.1205 11.16 15.6605 11.16H12.8205V8.34C12.8205 7.88 12.4505 7.51 11.9905 7.51C11.5305 7.51 11.1605 7.88 11.1605 8.34V11.16H8.33049C8.11049 11.16 7.90049 11.25 7.74049 11.4C7.59049 11.56 7.50049 11.769 7.50049 11.99C7.50049 12.45 7.87049 12.82 8.33049 12.83H11.1605V15.66C11.1605 16.12 11.5305 16.49 11.9905 16.49C12.4505 16.49 12.8205 16.12 12.8205 15.66V12.83Z" fill="url(#paint0_linear_91_6995)"/>
<defs>
<linearGradient id="paint0_linear_91_6995" x1="13.9417" y1="18.5882" x2="18.1949" y2="3.21296" gradientUnits="userSpaceOnUse">
<stop stop-color="#7C3AED"/>
<stop offset="0.927091" stop-color="#6C1AF7"/>
</linearGradient>
</defs>
</svg>
