<svg width="33" height="24" viewBox="0 0 33 24" fill="none" xmlns="http://www.w3.org/2000/svg">
<g clip-path="url(#clip0_68_5026)">
<g clip-path="url(#clip1_68_5026)">
<path d="M0.56604 10.673C0.56604 5.04976 5.12458 0.491211 10.7478 0.491211H22.3842C28.0075 0.491211 32.566 5.04975 32.566 10.673V13.5821C32.566 19.2054 28.0075 23.7639 22.3842 23.7639H0.56604V10.673Z" fill="url(#paint0_linear_68_5026)"/>
<rect x="6.23889" y="3.40039" width="20.6545" height="9.01818" rx="4.50909" fill="white"/>
<path d="M10.7479 11.5462C12.7562 11.5462 14.3843 9.91811 14.3843 7.9098C14.3843 5.90149 12.7562 4.27344 10.7479 4.27344C8.73963 4.27344 7.11157 5.90149 7.11157 7.9098C7.11157 9.91811 8.73963 11.5462 10.7479 11.5462Z" fill="#1D1C51"/>
<path d="M11.6211 7.18306C12.0227 7.18306 12.3483 6.85745 12.3483 6.45579C12.3483 6.05413 12.0227 5.72852 11.6211 5.72852C11.2194 5.72852 10.8938 6.05413 10.8938 6.45579C10.8938 6.85745 11.2194 7.18306 11.6211 7.18306Z" fill="white"/>
<path d="M22.3843 11.5462C24.3926 11.5462 26.0207 9.91811 26.0207 7.9098C26.0207 5.90149 24.3926 4.27344 22.3843 4.27344C20.376 4.27344 18.7479 5.90149 18.7479 7.9098C18.7479 9.91811 20.376 11.5462 22.3843 11.5462Z" fill="#1D1C51"/>
<path d="M23.2574 7.18306C23.6591 7.18306 23.9847 6.85745 23.9847 6.45579C23.9847 6.05413 23.6591 5.72852 23.2574 5.72852C22.8558 5.72852 22.5302 6.05413 22.5302 6.45579C22.5302 6.85745 22.8558 7.18306 23.2574 7.18306Z" fill="white"/>
<rect x="10.0206" y="15.3271" width="13.0909" height="0.727273" rx="0.363636" fill="white"/>
<rect x="10.0206" y="18.9639" width="13.0909" height="0.727273" rx="0.363636" fill="white"/>
</g>
</g>
<defs>
<linearGradient id="paint0_linear_68_5026" x1="-7.07727" y1="70.7942" x2="23.1753" y2="66.0678" gradientUnits="userSpaceOnUse">
<stop offset="0.359375" stop-color="#C183C8"/>
<stop offset="1" stop-color="#7C3AED"/>
</linearGradient>
<clipPath id="clip0_68_5026">
<rect width="32" height="23.2727" fill="white" transform="translate(0.56604 0.491211)"/>
</clipPath>
<clipPath id="clip1_68_5026">
<rect width="32" height="23.2727" fill="white" transform="translate(0.56604 0.491211)"/>
</clipPath>
</defs>
</svg>
