<svg width="54" height="54" viewBox="0 0 54 54" fill="none" xmlns="http://www.w3.org/2000/svg">
<circle cx="27" cy="27" r="27" fill="#E4DDF4"/>
<path fill-rule="evenodd" clip-rule="evenodd" d="M31.1338 14.5619L37.5733 21.3345C37.7436 21.5143 37.8389 21.753 37.8389 22.0021V33.7976C37.8389 37.0248 35.2319 39.75 32.1444 39.75H21.9907C18.7227 39.75 16.1639 37.1352 16.1639 33.7976V30.5808C16.1639 30.0493 16.591 29.618 17.1173 29.618C17.6435 29.618 18.0706 30.0493 18.0706 30.5808V33.7976C18.0706 36.0928 19.7548 37.8245 21.9907 37.8245H32.1444C34.1985 37.8245 35.9323 35.9799 35.9323 33.7976V22.3884L31.0652 17.2692V18.9482C31.0652 20.237 32.1037 21.2883 33.3799 21.2909C33.9061 21.2922 34.3319 21.7235 34.3307 22.2562C34.3294 22.7864 33.9036 23.2164 33.3773 23.2164H33.3761C31.0512 23.2113 29.1585 21.2973 29.1585 18.9482V16.1909H21.9907C19.8654 16.1909 18.0706 17.9418 18.0706 20.0149V25.3473C18.0706 25.8787 17.6435 26.31 17.1173 26.31C16.591 26.31 16.1639 25.8787 16.1639 25.3473V20.0149C16.1639 16.8982 18.832 14.2654 21.9907 14.2654H30.0381C30.0503 14.2642 30.0615 14.2609 30.0724 14.2576C30.0854 14.2538 30.0981 14.25 30.1119 14.25C30.1267 14.25 30.14 14.254 30.1533 14.258C30.1638 14.2611 30.1743 14.2643 30.1856 14.2654H30.4462C30.7055 14.2654 30.9533 14.3719 31.1338 14.5619ZM27.4653 32.2395C27.4653 32.7709 27.0382 33.2022 26.512 33.2022C25.9857 33.2022 25.5586 32.7709 25.5586 32.2395V26.1318L23.5795 28.1407C23.2083 28.5181 22.6046 28.5181 22.2309 28.1433C21.8584 27.7685 21.8571 27.1587 22.2283 26.7813L25.837 23.1216V23.1203C26.0099 22.947 26.2488 22.8392 26.512 22.8392C26.7763 22.8392 27.014 22.947 27.1869 23.1203V23.1216L30.7956 26.7813C31.1668 27.1587 31.1655 27.7685 30.7931 28.1433C30.6062 28.3294 30.3634 28.4231 30.1194 28.4231C29.8753 28.4231 29.6313 28.3294 29.4444 28.1407L27.4653 26.1318V32.2395Z" fill="#6E47D5"/>
</svg>
